<?xml version="1.0" standalone="no"?>
<!DOCTYPE svg PUBLIC "-//W3C//DTD SVG 20010904//EN"
 "http://www.w3.org/TR/2001/REC-SVG-20010904/DTD/svg10.dtd">
<svg version="1.0" xmlns="http://www.w3.org/2000/svg"
 width="542.000000pt" height="542.000000pt" viewBox="0 0 542.000000 542.000000"
 preserveAspectRatio="xMidYMid meet">

<g transform="translate(0.000000,542.000000) scale(0.100000,-0.100000)"
fill="#5d16a2" stroke="none">
<path d="M767 5344 c-206 -37 -403 -156 -539 -326 -111 -137 -171 -293 -188
-485 -8 -80 -10 -708 -8 -1928 l4 -1810 22 -83 c89 -335 335 -578 672 -663 46
-12 365 -14 1970 -14 l1915 0 81 22 c303 81 529 301 635 618 l24 70 3 1900 c2
1402 0 1920 -8 1975 -26 167 -115 339 -243 469 -147 150 -307 230 -522 261
-45 6 -732 9 -1905 9 -1530 -1 -1848 -3 -1913 -15z m2533 -1171 c338 -83 528
-253 597 -531 23 -93 23 -313 -1 -402 -49 -188 -173 -344 -348 -435 -66 -35
-79 -55 -37 -55 32 0 163 -56 226 -96 165 -105 271 -290 310 -539 30 -195 1
-385 -84 -554 -91 -181 -257 -311 -505 -394 -214 -72 -291 -77 -1195 -77
l-783 0 0 1555 0 1556 868 -4 c841 -3 870 -4 952 -24z"/>
<path d="M2038 3754 c-5 -4 -8 -198 -8 -431 l0 -423 462 0 c494 0 554 4 648
48 79 37 171 132 200 207 21 51 24 78 24 180 1 191 -39 283 -154 352 -104 62
-132 65 -675 70 -269 3 -493 1 -497 -3z"/>
<path d="M2037 2503 c-4 -3 -7 -222 -7 -485 l0 -478 533 0 c586 0 607 2 719
62 67 36 142 113 176 181 80 160 61 420 -39 546 -78 100 -194 155 -359 171
-108 11 -1013 14 -1023 3z"/>
</g>
</svg>
